<svg width="33" height="32" viewBox="0 0 33 32" fill="none" xmlns="http://www.w3.org/2000/svg">
<g clip-path="url(#clip0_43_432)">
<path d="M11.3674 16.0098C11.3622 13.0647 13.7459 10.6723 16.6904 10.6672C19.6354 10.6614 22.0283 13.044 22.0341 15.9896C22.0397 18.9352 19.6561 21.3271 16.7106 21.3329C13.7661 21.3385 11.3731 18.9554 11.3674 16.0098ZM8.48568 16.0155C8.4945 20.5532 12.1798 24.2235 16.7163 24.2146C21.2533 24.2059 24.9257 20.5215 24.9169 15.9839C24.9081 11.4479 21.2222 7.77542 16.6847 7.7843C12.1481 7.79311 8.47687 11.4789 8.48568 16.0155ZM23.3047 7.4473C23.3067 8.50692 24.1682 9.36492 25.2279 9.36286C26.288 9.36073 27.146 8.49967 27.1444 7.44005C27.1424 6.38042 26.2808 5.52192 25.2207 5.52405C24.1606 5.52611 23.3026 6.38767 23.3047 7.4473ZM10.2612 29.0348C8.70131 28.9669 7.85425 28.7077 7.28975 28.4905C6.54218 28.2012 6.00875 27.8544 5.44731 27.2972C4.88694 26.7377 4.53906 26.2059 4.24718 25.4599C4.02793 24.8953 3.76406 24.0493 3.69093 22.4894C3.61162 20.803 3.5935 20.297 3.58575 16.0249C3.57743 11.7537 3.593 11.2477 3.66662 9.5598C3.73343 8.00099 3.99425 7.1528 4.21093 6.5888C4.50018 5.84023 4.846 5.3078 5.40431 4.74642C5.96362 4.18498 6.4955 3.83817 7.242 3.5463C7.80606 3.32592 8.65206 3.06411 10.2114 2.99005C11.8988 2.91017 12.4042 2.89311 16.6754 2.8848C20.9474 2.87648 21.4534 2.89155 23.1414 2.96567C24.7001 3.03355 25.5482 3.29173 26.1118 3.50998C26.8598 3.79923 27.3932 4.14405 27.9542 4.70336C28.5151 5.26273 28.8629 5.79355 29.1548 6.54167C29.3751 7.10411 29.6369 7.95117 29.7106 9.51005C29.7909 11.1974 29.8091 11.7034 29.8168 15.9745C29.8251 20.2467 29.8095 20.7527 29.7354 22.4397C29.6675 23.9995 29.4088 24.8472 29.1911 25.4122C28.9018 26.1592 28.5561 26.6927 27.9972 27.2541C27.4384 27.8134 26.9065 28.1623 26.1595 28.4542C25.5964 28.674 24.7494 28.9363 23.1911 29.0104C21.5037 29.0897 20.9982 29.1079 16.7256 29.1157C12.4545 29.124 11.9491 29.1079 10.2612 29.0348ZM10.0746 0.110797C8.37212 0.191172 7.20937 0.463797 6.19325 0.861984C5.14143 1.27205 4.24981 1.82155 3.36287 2.71217C2.47481 3.6033 1.92943 4.49648 1.5225 5.54936C1.12856 6.56805 0.86156 7.73136 0.786372 9.43486C0.711747 11.1415 0.694622 11.6858 0.702935 16.0305C0.711247 20.3748 0.730372 20.9202 0.811747 22.6273C0.893122 24.3292 1.16481 25.4915 1.56293 26.508C1.9735 27.5599 2.5225 28.4511 3.41362 29.3386C4.30425 30.2261 5.198 30.771 6.25137 31.1785C7.269 31.5719 8.43275 31.8399 10.1357 31.9145C11.8423 31.9897 12.3871 32.0063 16.7308 31.998C21.0766 31.9897 21.6214 31.9705 23.328 31.8897C25.0304 31.8083 26.1921 31.5357 27.2092 31.1385C28.2611 30.7269 29.1527 30.1789 30.0397 29.2878C30.9267 28.3971 31.4721 27.5034 31.879 26.45C32.273 25.4324 32.541 24.2685 32.6151 22.5667C32.6897 20.859 32.7074 20.3136 32.6991 15.9694C32.6907 11.6246 32.6711 11.0803 32.5902 9.37424C32.5094 7.67074 32.2367 6.50898 31.8391 5.49186C31.428 4.44005 30.8796 3.54936 29.9889 2.66136C29.0983 1.77436 28.2046 1.22792 27.1512 0.822047C26.1331 0.428047 24.9697 0.159547 23.2668 0.0859219C21.5602 0.0102344 21.0154 -0.00632812 16.6701 0.00192188C12.3259 0.0102344 11.7811 0.0288594 10.0746 0.110797Z" fill="black"/>
</g>
<defs>
<clipPath id="clip0_43_432">
<rect width="32" height="32" fill="white" transform="translate(0.700989)"/>
</clipPath>
</defs>
</svg>
