<svg width="39" height="28" viewBox="0 0 39 28" fill="none" xmlns="http://www.w3.org/2000/svg">
<g clip-path="url(#clip0_34_416)">
<path d="M2.67957 0H36.3207C36.9204 0 37.4653 0.250205 37.8599 0.651984C38.2548 1.05439 38.5 1.61058 38.5 2.22097V25.779C38.5 26.2394 38.3605 26.6683 38.1224 27.0241C38.0788 27.1391 38.0108 27.2462 37.9177 27.3373C37.8555 27.3969 37.7872 27.4457 37.7148 27.4826C37.336 27.8043 36.8492 28.0003 36.3207 28.0003H2.67957C2.08056 28.0003 1.53505 27.7504 1.13983 27.348C0.745542 26.9459 0.5 26.3907 0.5 25.779V2.22097C0.5 1.60932 0.744924 1.05376 1.13952 0.651984C1.53412 0.249575 2.07933 0 2.67957 0ZM2.17179 24.8447L13.9615 12.8008L2.17179 3.00562V24.8447ZM15.2601 13.8795L3.1051 26.2965H35.7929L24.1769 13.8814L20.3475 17.2062C20.0472 17.4677 19.5976 17.4825 19.2797 17.2197L15.2601 13.8795ZM25.4482 12.7778L36.8282 24.9408V2.89847L25.4482 12.7778ZM3.2421 1.70354L19.7933 15.4551L35.6339 1.70354H3.2421Z" fill="black"/>
</g>
<defs>
<clipPath id="clip0_34_416">
<rect width="38" height="28" fill="white" transform="translate(0.5)"/>
</clipPath>
</defs>
</svg>
