<svg width="33" height="32" viewBox="0 0 33 32" fill="none" xmlns="http://www.w3.org/2000/svg">
<g clip-path="url(#clip0_43_434)">
<path d="M32.701 16C32.701 7.16322 25.5378 0 16.701 0C7.86421 0 0.700989 7.16322 0.700989 16C0.700989 23.504 5.86688 29.7996 12.8358 31.5291V20.8893H9.53651V16H12.8358V13.8933C12.8358 8.44699 15.3003 5.92283 20.6466 5.92283C21.6607 5.92283 23.4097 6.12212 24.1251 6.32079V10.753C23.7473 10.7134 23.0916 10.6933 22.2768 10.6933C19.6533 10.6933 18.6392 11.6872 18.6392 14.2711V16H23.8655L22.9677 20.8893H18.6392V31.8831C26.5619 30.9262 32.701 24.1804 32.701 16Z" fill="black"/>
<path d="M22.9677 20.8893L23.8655 16H18.6392V14.2711C18.6392 11.6873 19.6533 10.6933 22.2768 10.6933C23.0915 10.6933 23.7473 10.7134 24.1251 10.753V6.32081C23.4097 6.12214 21.6607 5.92285 20.6466 5.92285C15.3003 5.92285 12.8358 8.44765 12.8358 13.8933V16H9.5365V20.8893H12.8358V31.5291C14.0737 31.8359 15.3682 32 16.701 32C17.3573 32 18.0036 31.9598 18.6392 31.8831V20.8893H22.9677Z" fill="#CCB13C"/>
</g>
<defs>
<clipPath id="clip0_43_434">
<rect width="32" height="32" fill="white" transform="translate(0.700989)"/>
</clipPath>
</defs>
</svg>
