<svg width="28" height="36" viewBox="0 0 28 36" fill="none" xmlns="http://www.w3.org/2000/svg">
<g clip-path="url(#clip0_34_410)">
<path d="M14.3984 34.2334C16.247 33.0586 17.9082 31.6348 19.3554 30.0469C22.499 26.6045 24.6201 22.3975 25.4697 18.2696C26.3134 14.1944 25.915 10.2012 24.0488 7.11916C23.5185 6.2344 22.8535 5.42581 22.0625 4.69924C19.7949 2.63381 17.1992 1.64944 14.5859 1.62307C11.8408 1.60256 9.05758 2.63381 6.59664 4.59377C5.54781 5.43166 4.68355 6.39553 4.01266 7.45901C2.28414 10.1778 1.75973 13.5528 2.33101 17.083C2.90816 20.666 4.61031 24.4131 7.3232 27.8086C9.20992 30.1758 11.583 32.3731 14.4072 34.2276L14.3984 34.2334ZM14 6.19924C16.0654 6.19924 17.9404 7.03713 19.291 8.39358C20.6474 9.75002 21.4853 11.6162 21.4853 13.6846C21.4853 15.75 20.6474 17.625 19.291 18.9756C17.9345 20.3321 16.0683 21.1699 14 21.1699C11.9345 21.1699 10.0595 20.3321 8.70895 18.9756C7.3525 17.6192 6.51461 15.753 6.51461 13.6846C6.51461 11.6192 7.3525 9.74416 8.70895 8.39358C10.0654 7.03713 11.9316 6.19924 14 6.19924ZM18.2129 9.4717C17.1377 8.39651 15.6406 7.72268 14 7.72268C12.3505 7.72268 10.8623 8.38772 9.78707 9.4717C8.71187 10.5469 8.03805 12.044 8.03805 13.6846C8.03805 15.334 8.70309 16.8223 9.78707 17.8975C10.8623 18.9727 12.3593 19.6465 14 19.6465C15.6494 19.6465 17.1377 18.9815 18.2129 17.8975C19.288 16.8223 19.9619 15.3252 19.9619 13.6846C19.9589 12.0352 19.2968 10.5469 18.2129 9.4717ZM20.5595 31.1338C18.9189 32.9268 17.0175 34.5352 14.8701 35.8389C14.6123 36.0322 14.2461 36.0586 13.9531 35.8711C10.789 33.8584 8.13766 31.4385 6.04586 28.8135C3.16598 25.2012 1.34664 21.1934 0.728476 17.3321C0.0985928 13.418 0.68746 9.65627 2.6357 6.58596C3.40621 5.376 4.38473 4.27444 5.5859 3.32229C8.33102 1.13674 11.4746 -0.020484 14.5976 2.3784e-05C17.6093 0.026391 20.58 1.1426 23.1582 3.49514C24.0634 4.31838 24.8193 5.25002 25.4375 6.27248C27.5322 9.72073 27.9834 14.127 27.0664 18.5801C26.1552 22.9864 23.9023 27.4658 20.5683 31.1192L20.5595 31.1338Z" fill="black"/>
</g>
<defs>
<clipPath id="clip0_34_410">
<rect width="27.0293" height="36" fill="white" transform="translate(0.485352)"/>
</clipPath>
</defs>
</svg>
