<svg width="37" height="36" viewBox="0 0 37 36" fill="none" xmlns="http://www.w3.org/2000/svg">
<g clip-path="url(#clip0_34_413)">
<path d="M10.3684 14.8077C11.5865 16.9989 12.9883 19.1077 14.8067 21.0301C16.6334 22.9616 18.8953 24.7217 21.8364 26.2139L21.8394 26.2154L21.84 26.2139C22.0543 26.3232 22.2584 26.3205 22.4501 26.2487C22.728 26.1447 23.0174 25.9139 23.2989 25.6345C23.5136 25.4207 23.7827 25.068 24.0736 24.6855C25.206 23.1974 26.606 21.3581 28.5826 22.2732C28.6244 22.2923 28.6639 22.3147 28.701 22.3397L35.2884 26.1238C35.312 26.1374 35.3346 26.1518 35.3561 26.1671C36.2294 26.7666 36.586 27.6899 36.5898 28.7237C36.5939 29.7899 36.1985 30.9832 35.6258 31.9923C34.8706 33.3222 33.7453 34.2011 32.4574 34.7968C31.2296 35.3645 29.8669 35.6666 28.5511 35.8591C26.4933 36.1609 24.5532 35.9692 22.5775 35.3609C20.649 34.7671 18.698 33.7754 16.571 32.4578L16.4161 32.3618C15.4368 31.7552 14.3828 31.1028 13.3572 30.329C9.56929 27.47 5.71186 23.344 3.21061 18.8159C1.10509 15.0041 -0.0470441 10.8929 0.580991 6.97273C0.925189 4.82157 1.85296 2.86886 3.45235 1.5754C4.85446 0.440928 6.74651 -0.173563 9.17857 0.0434371C9.46506 0.0681699 9.70649 0.231583 9.84252 0.461244L9.84429 0.460361L14.0618 7.60636C14.6831 8.40664 14.752 9.20074 14.416 9.99013C14.1384 10.6432 13.5645 11.2418 12.8037 11.8062C12.5723 11.9976 12.3008 12.1963 12.0208 12.4013C11.0792 13.0906 10.0021 13.8788 10.3684 14.8077ZM13.5624 22.2072C11.618 20.1515 10.1367 17.9255 8.85881 15.6245C8.83643 15.5883 8.81641 15.55 8.79933 15.5097C7.86479 13.3134 9.54132 12.0868 11.0056 11.0159C11.2544 10.834 11.4952 10.6576 11.7125 10.4774L11.7131 10.4783C11.7257 10.4677 11.739 10.4574 11.7528 10.4474C12.2955 10.0487 12.6865 9.66801 12.8358 9.31763C12.9209 9.11771 12.8894 8.89776 12.6986 8.65073C12.6659 8.61275 12.6359 8.57094 12.6094 8.52618L8.59382 1.7232C6.86576 1.65224 5.52607 2.11216 4.53529 2.91391C3.28717 3.92354 2.55578 5.49289 2.27577 7.24185C1.71487 10.7439 2.78103 14.4832 4.71725 17.9888C7.09572 22.2944 10.7753 26.2263 14.3936 28.9566C15.3886 29.7074 16.3888 30.3266 17.318 30.902L17.4729 30.998C19.4804 32.2414 21.3056 33.1727 23.0825 33.7197C24.8126 34.2524 26.508 34.4205 28.3026 34.1573C29.483 33.9844 30.6914 33.72 31.7381 33.236C32.7247 32.7796 33.5777 32.1215 34.133 31.1443C34.5735 30.3679 34.878 29.4798 34.8753 28.7234C34.8736 28.2435 34.7363 27.8316 34.4027 27.5916L27.8515 23.829C27.1269 23.5107 26.1941 24.7361 25.4392 25.7281C25.1141 26.1556 24.8135 26.5502 24.5099 26.852C24.0751 27.2836 23.5919 27.6537 23.0489 27.8563C22.42 28.0916 21.7549 28.1019 21.06 27.7474L21.0606 27.7462C17.9354 26.1606 15.5213 24.2786 13.5624 22.2072Z" fill="black"/>
</g>
<defs>
<clipPath id="clip0_34_413">
<rect width="36.1805" height="36" fill="white" transform="translate(0.40979)"/>
</clipPath>
</defs>
</svg>
