<svg width="46" height="46" viewBox="0 0 46 46" fill="none" xmlns="http://www.w3.org/2000/svg">
<g clip-path="url(#clip0_43_375)">
<path d="M20.7647 14.0983C20.6837 14.0149 20.5868 13.9484 20.4799 13.9026C20.3729 13.8569 20.258 13.8328 20.1417 13.8318C20.0253 13.8308 19.91 13.8529 19.8023 13.8968C19.6945 13.9407 19.5966 14.0055 19.5141 14.0875C19.1664 14.4334 19.1619 14.9994 19.5042 15.3507L27.025 23.1051L19.5114 30.6421C19.1646 30.9898 19.1637 31.5549 19.5078 31.9053C19.5893 31.9884 19.6865 32.0544 19.7937 32.0996C19.9009 32.1448 20.016 32.1683 20.1324 32.1686C20.2487 32.1689 20.364 32.1461 20.4715 32.1016C20.5789 32.057 20.6765 31.9915 20.7584 31.9089L28.8947 23.7466C29.2388 23.4007 29.2424 22.8374 28.901 22.487L20.7647 14.0983Z" fill="#7E7E7E"/>
<path d="M46 23C46 16.6489 43.4251 10.8989 39.2635 6.73648C35.1011 2.57492 29.3511 0 23 0C16.6489 0 10.898 2.57492 6.73648 6.73648C2.57492 10.8989 0 16.6489 0 23C0 29.352 2.57402 35.102 6.73648 39.2635C10.898 43.426 16.648 46 23 46C29.3511 46 35.1011 43.4251 39.2635 39.2635C43.4251 35.102 46 29.3511 46 23ZM37.9967 8.00328C41.8339 11.8414 44.2085 17.1431 44.2085 23C44.2085 28.8569 41.8348 34.1595 37.9967 37.9967C34.1586 41.8339 28.8569 44.2085 23 44.2085C17.1431 44.2085 11.8405 41.8348 8.00328 37.9967C4.16515 34.1595 1.79148 28.8569 1.79148 23C1.79148 17.1431 4.16605 11.8414 8.00328 8.00328C11.8405 4.16516 17.1431 1.79148 23 1.79148C28.8569 1.79148 34.1586 4.16605 37.9967 8.00328Z" fill="#7E7E7E"/>
</g>
<defs>
<clipPath id="clip0_43_375">
<rect width="46" height="46" fill="white" transform="matrix(-1 0 0 1 46 0)"/>
</clipPath>
</defs>
</svg>
