<svg width="46" height="46" viewBox="0 0 46 46" fill="none" xmlns="http://www.w3.org/2000/svg">
<g clip-path="url(#clip0_43_443)">
<path d="M25.2353 14.0983C25.3163 14.0149 25.4132 13.9484 25.5201 13.9026C25.6271 13.8569 25.742 13.8328 25.8583 13.8318C25.9747 13.8308 26.09 13.8529 26.1977 13.8968C26.3055 13.9407 26.4034 14.0055 26.4859 14.0875C26.8336 14.4334 26.8381 14.9994 26.4958 15.3507L18.975 23.1051L26.4886 30.6421C26.8354 30.9898 26.8363 31.5549 26.4922 31.9053C26.4107 31.9884 26.3135 32.0544 26.2063 32.0996C26.0991 32.1448 25.984 32.1683 25.8676 32.1686C25.7513 32.1689 25.636 32.1461 25.5285 32.1016C25.4211 32.057 25.3235 31.9915 25.2416 31.9089L17.1053 23.7466C16.7612 23.4007 16.7576 22.8374 17.099 22.487L25.2353 14.0983Z" fill="#7E7E7E"/>
<path d="M0 23C0 16.6489 2.57492 10.8989 6.73648 6.73648C10.8989 2.57492 16.6489 0 23 0C29.3511 0 35.102 2.57492 39.2635 6.73648C43.4251 10.8989 46 16.6489 46 23C46 29.352 43.426 35.102 39.2635 39.2635C35.102 43.426 29.352 46 23 46C16.6489 46 10.8989 43.4251 6.73648 39.2635C2.57492 35.102 0 29.3511 0 23ZM8.00328 8.00328C4.16605 11.8414 1.79148 17.1431 1.79148 23C1.79148 28.8569 4.16516 34.1595 8.00328 37.9967C11.8414 41.8339 17.1431 44.2085 23 44.2085C28.8569 44.2085 34.1595 41.8348 37.9967 37.9967C41.8348 34.1595 44.2085 28.8569 44.2085 23C44.2085 17.1431 41.8339 11.8414 37.9967 8.00328C34.1595 4.16516 28.8569 1.79148 23 1.79148C17.1431 1.79148 11.8414 4.16605 8.00328 8.00328Z" fill="#7E7E7E"/>
</g>
<defs>
<clipPath id="clip0_43_443">
<rect width="46" height="46" fill="white"/>
</clipPath>
</defs>
</svg>
